HIERARCHY
ROOT hip
{
	OFFSET 0.000000 0.000000 0.000000
	CHANNELS 6 Xposition Yposition Zposition Xrotation Zrotation Yrotation 
	JOINT abdomen
	{
		OFFSET 0.000000 3.422050 0.000000
		CHANNELS 3 Xrotation Zrotation Yrotation 
		JOINT chest
		{
			OFFSET 0.000000 8.486693 -0.684411
			CHANNELS 3 Xrotation Zrotation Yrotation 
			JOINT neck
			{
				OFFSET 0.000000 10.266162 -0.273764
				CHANNELS 3 Xrotation Zrotation Yrotation 
				JOINT head
				{
					OFFSET 0.000000 3.148285 0.000000
					CHANNELS 3 Xrotation Zrotation Yrotation 
					End Site
					{
						OFFSET 0.000000 3.148289 0.000000
					}
				}
			}
			JOINT lCollar
			{
				OFFSET 3.422053 6.707223 -0.821293
				CHANNELS 3 Yrotation Zrotation Xrotation 
				JOINT lShldr
				{
					OFFSET 3.285171 0.000000 0.000000
					CHANNELS 3 Zrotation Yrotation Xrotation 
					JOINT lForeArm
					{
						OFFSET 10.129278 0.000000 0.000000
						CHANNELS 3 Yrotation Zrotation Xrotation 
						JOINT lHand
						{
							OFFSET 8.486692 0.000000 0.000000
							CHANNELS 3 Zrotation Yrotation Xrotation 
							End Site
							{
								OFFSET 4.106464 0.000000 0.000000
							}
						}
					}
				}
			}
			JOINT rCollar
			{
				OFFSET -3.558935 6.707223 -0.821293
				CHANNELS 3 Yrotation Zrotation Xrotation 
				JOINT rShldr
				{
					OFFSET -3.148289 0.000000 0.000000
					CHANNELS 3 Zrotation Yrotation Xrotation 
					JOINT rForeArm
					{
						OFFSET -10.266159 0.000000 0.000000
						CHANNELS 3 Yrotation Zrotation Xrotation 
						JOINT rHand
						{
							OFFSET -8.349810 0.000000 0.000000
							CHANNELS 3 Zrotation Yrotation Xrotation 
							End Site
							{
								OFFSET -4.106464 0.000000 0.000000
							}
						}
					}
				}
			}
		}
	}
	JOINT lThigh
	{
		OFFSET 5.338403 -1.642589 1.368821
		CHANNELS 3 Xrotation Zrotation Yrotation 
		JOINT lShin
		{
			OFFSET -2.053232 -20.121670 0.000000
			CHANNELS 3 Xrotation Zrotation Yrotation 
			JOINT lFoot
			{
				OFFSET 0.000000 -19.300380 -1.231939
				CHANNELS 3 Xrotation Yrotation Zrotation 
				End Site
				{
					OFFSET 0.000000 -2.463878 4.653993
				}
			}
		}
	}
	JOINT rThigh
	{
		OFFSET -5.338403 -1.642589 1.368821
		CHANNELS 3 Xrotation Zrotation Yrotation 
		JOINT rShin
		{
			OFFSET 2.053232 -20.121670 0.000000
			CHANNELS 3 Xrotation Zrotation Yrotation 
			JOINT rFoot
			{
				OFFSET 0.000000 -19.300380 -1.231939
				CHANNELS 3 Xrotation Yrotation Zrotation 
				End Site
				{
					OFFSET 0.000000 -2.463878 4.653993
				}
			}
		}
	}
}
MOTION
Frames: 10
Frame Time: 0.049897
0.000000 43.528500 0.000000 0.000000 0.000000 0.000000 0.000000 0.000000 0.000000 0.000000 0.000000 0.000000 0.000000 0.000000 0.000000 0.000000 0.000000 0.000000 0.000000 0.000000 0.000000 0.000000 0.000000 0.000000 0.000000 0.000000 0.000000 0.000000 0.000000 0.000000 0.000000 0.000000 0.000000 0.000000 0.000000 0.000000 0.000000 0.000000 0.000000 0.000000 0.000000 0.000000 0.000000 0.000000 0.000000 0.000000 0.000000 0.000000 0.000000 0.000000 0.000000 0.000000 0.000000 0.000000 0.000000 0.000000 0.000000 0.000000 0.000000 0.000000 
19.995884 22.721600 9.657022 86.015541 -0.006395 179.994034 -9.342391 0.000000 0.000000 -0.431888 -0.001690 -0.449373 13.997003 0.000000 0.000000 0.169607 0.000360 -0.243047 0.278464 -8.002677 -0.003308 -51.001682 1.998528 55.000076 -19.002571 -0.003251 35.998302 -7.000325 0.000000 0.000000 -0.281993 7.999173 -0.003070 50.996506 -1.999367 54.998482 19.000294 -0.001107 35.998905 6.996825 0.000000 0.000000 -89.711456 14.791649 26.842897 20.418022 -0.386280 -41.866604 3.361350 9.090916 15.790938 -89.799820 -12.804737 -26.837141 20.629358 0.153392 41.866001 3.295746 -9.785653 -17.569597 
19.995884 22.721600 9.762821 86.615883 -0.006364 179.994003 -8.621510 0.000000 0.000000 0.784131 -0.001686 -0.449443 14.094536 0.249054 0.404564 0.169182 0.000358 -0.242438 -0.510363 -9.777392 -0.566986 -49.258701 1.891968 54.986977 -18.252401 -0.017334 35.985443 -6.235613 -0.430810 -0.586284 0.571253 9.898409 -0.613786 49.108902 -1.893629 54.985233 18.267982 0.048220 35.981937 6.219916 0.436052 -0.587427 -89.711456 14.791649 26.842897 20.841347 -0.368984 -41.865131 3.361350 9.090916 15.790938 -89.670555 -12.944241 -26.924364 21.041273 0.148655 41.863922 3.089314 -9.655027 -17.530697 
19.995884 22.721600 9.868620 87.226143 -0.006333 179.993973 -7.900173 0.000000 0.000000 2.002362 -0.001680 -0.449514 14.193954 0.497716 0.810059 0.168757 0.000356 -0.241829 -1.325378 -11.552318 -1.161638 -47.509171 1.785451 54.970566 -17.501720 -0.031596 35.972759 -5.465421 -0.854305 -1.179126 1.454655 11.796978 -1.260238 47.212975 -1.787914 54.968430 17.535202 0.097792 35.965603 5.437419 0.864667 -1.181594 -89.711456 14.791649 26.842897 21.264767 -0.351694 -41.863529 3.361350 9.090916 15.790940 -89.541008 -13.083560 -27.011965 21.453262 0.143934 41.861801 2.882854 -9.524529 -17.491322 
19.995884 22.721600 9.974419 87.836624 -0.006302 179.993927 -7.178433 0.000000 0.000000 3.222536 -0.001673 -0.449584 14.295254 0.745964 1.216488 0.168332 0.000354 -0.241220 -2.168280 -13.325707 -1.788812 -45.753872 1.679136 54.950836 -16.750587 -0.046030 35.960255 -4.689850 -1.270262 -1.778406 2.370291 13.692729 -1.944317 45.309669 -1.682402 54.948048 16.802015 0.147598 35.949890 4.649446 1.285613 -1.782380 -89.711472 14.791651 26.842899 21.688271 -0.334412 -41.861820 3.361350 9.090916 15.790940 -89.411148 -13.222690 -27.099945 21.865334 0.139228 41.859653 2.676367 -9.394162 -17.451485 
19.995884 22.721600 10.080217 88.447311 -0.006271 179.993896 -6.456349 0.000000 0.000000 4.444382 -0.001664 -0.449654 14.398442 0.993772 1.623853 0.167907 0.000353 -0.240611 -3.040865 -15.095765 -2.450163 -43.993614 1.573170 54.927795 -15.999075 -0.060634 35.947941 -3.909027 -1.678461 -2.383999 3.320365 15.583409 -2.668044 43.400009 -1.577274 54.924088 16.068472 0.197626 35.934811 3.856118 1.698663 -2.389652 -89.711456 14.791649 26.842897 22.111839 -0.317139 -41.859970 3.361350 9.090916 15.790938 -89.281006 -13.361630 -27.188299 22.277466 0.134536 41.857471 2.469855 -9.263932 -17.411188 
19.995884 22.721600 10.186017 89.058167 -0.006239 179.993866 -5.733979 0.000000 0.000000 5.667621 -0.001654 -0.449724 14.503514 1.241116 2.032156 0.167482 0.000351 -0.240001 -3.945038 -16.860611 -3.147456 -42.229179 1.467709 54.901440 -15.247236 -0.075406 35.935806 -3.123076 -2.078686 -2.995766 4.307216 17.466686 -3.433587 41.485001 -1.472707 54.896538 15.334641 0.247864 35.920364 3.057567 2.103593 -3.003271 -89.711456 14.791649 26.842897 22.535469 -0.299881 -41.857990 3.361350 9.090915 15.790936 -89.150551 -13.500380 -27.277031 22.689655 0.129859 41.855251 2.263315 -9.133840 -17.370430 
19.995884 22.721600 10.291816 89.669167 -0.006206 179.993835 -5.011379 0.000000 0.000000 6.891982 -0.001643 -0.449794 14.610474 1.487972 2.441396 0.167056 0.000349 -0.239392 -4.882806 -18.618280 -3.882568 -40.461395 1.362916 54.871796 -14.495142 -0.090341 35.923870 -2.332134 -2.470727 -3.613563 5.333319 19.340132 -4.243256 39.565716 -1.368888 54.865459 14.600571 0.298299 35.906555 2.253933 2.500186 -3.623087 -89.711456 14.791649 26.842897 22.959146 -0.282634 -41.855885 3.361350 9.090916 15.790938 -89.019806 -13.638932 -27.366140 23.101887 0.125199 41.853008 2.056748 -9.003886 -17.329205 
19.995884 22.721600 10.397614 90.280258 -0.006174 179.993790 -4.288605 0.000000 0.000000 8.117179 -0.001629 -0.449863 14.719328 1.734315 2.851578 0.166631 0.000347 -0.238783 -5.856298 -20.366766 -4.657500 -38.691082 1.258936 54.838871 -13.742856 -0.105435 35.912121 -1.536349 -2.854381 -4.237236 6.401296 21.201227 -5.099515 37.643196 -1.265993 54.830856 13.866333 0.348919 35.893394 1.445368 2.888232 -4.248941 -89.711456 14.791649 26.842897 23.382851 -0.265403 -41.853642 3.361350 9.090916 15.790938 -88.888741 -13.777290 -27.455631 23.514149 0.120553 41.850723 1.850154 -8.874075 -17.287518 
19.995884 22.721600 10.503413 90.891418 -0.006141 179.993759 -3.565717 0.000000 0.000000 9.342940 -0.001615 -0.449933 14.830069 1.980121 3.262701 0.166206 0.000345 -0.238174 -6.867753 -22.103964 -5.474370 -36.919075 1.155921 54.802723 -12.990440 -0.120684 35.900570 -0.735873 -3.229447 -4.866621 7.513913 23.047365 -6.004980 35.718498 -1.164204 54.792770 13.131983 0.399712 35.880882 0.632028 3.267522 -4.880665 -89.711472 14.791651 26.842897 23.806587 -0.248189 -41.851284 3.361350 9.090916 15.790938 -88.757393 -13.915453 -27.545500 23.926435 0.115924 41.848408 1.643533 -8.744416 -17.245380 
